<?xml version="1.0" encoding="iso-8859-1"?>
<!-- Generator: Adobe Illustrator 19.0.0, SVG Export Plug-In . SVG Version: 6.00 Build 0)  -->
<svg version="1.1" id="Capa_1" xmlns="http://www.w3.org/2000/svg" xmlns:xlink="http://www.w3.org/1999/xlink" x="0px" y="0px"
	 viewBox="0 0 480 480" style="enable-background:new 0 0 480 480;" xml:space="preserve">
<g>
	<g>
		<path d="M400,24h-56V0h-16v24h-48V0h-16v24h-48V0h-16v24h-48V0h-16v24H80c-4.418,0-8,3.582-8,8v440c0,4.418,3.582,8,8,8h320
			c4.418,0,8-3.582,8-8V32C408,27.582,404.418,24,400,24z M336,64c4.418,0,8,3.582,8,8s-3.582,8-8,8s-8-3.582-8-8S331.582,64,336,64
			z M272,64c4.418,0,8,3.582,8,8s-3.582,8-8,8s-8-3.582-8-8S267.582,64,272,64z M208,64c4.418,0,8,3.582,8,8s-3.582,8-8,8
			s-8-3.582-8-8S203.582,64,208,64z M144,64c4.418,0,8,3.582,8,8s-3.582,8-8,8s-8-3.582-8-8S139.582,64,144,64z M392,464H88V40h48
			v9.472c-12.497,4.418-19.046,18.131-14.627,30.627c4.418,12.497,18.131,19.046,30.627,14.627s19.046-18.131,14.627-30.627
			c-2.416-6.835-7.793-12.211-14.627-14.627V40h48v9.472c-12.497,4.418-19.046,18.131-14.627,30.627
			c4.418,12.497,18.131,19.046,30.627,14.627s19.046-18.131,14.627-30.627c-2.416-6.835-7.793-12.211-14.627-14.627V40h48v9.472
			c-12.497,4.418-19.046,18.131-14.627,30.627S267.503,99.145,280,94.727s19.046-18.131,14.627-30.627
			c-2.416-6.835-7.793-12.211-14.627-14.627V40h48v9.472c-12.497,4.418-19.046,18.131-14.627,30.627S331.503,99.145,344,94.727
			s19.046-18.131,14.627-30.627c-2.416-6.835-7.793-12.211-14.627-14.627V40h48V464z"/>
	</g>
</g>
<g>
	<g>
		<rect x="120" y="400" width="240" height="16"/>
	</g>
</g>
<g>
	<g>
		<rect x="120" y="336" width="240" height="16"/>
	</g>
</g>
<g>
	<g>
		<rect x="120" y="272" width="240" height="16"/>
	</g>
</g>
<g>
	<g>
		<rect x="120" y="208" width="240" height="16"/>
	</g>
</g>
<g>
	<g>
		<rect x="120" y="144" width="240" height="16"/>
	</g>
</g>
<g>
</g>
<g>
</g>
<g>
</g>
<g>
</g>
<g>
</g>
<g>
</g>
<g>
</g>
<g>
</g>
<g>
</g>
<g>
</g>
<g>
</g>
<g>
</g>
<g>
</g>
<g>
</g>
<g>
</g>
</svg>
