<?xml version="1.0" encoding="iso-8859-1"?>
<!-- Generator: Adobe Illustrator 18.0.0, SVG Export Plug-In . SVG Version: 6.00 Build 0)  -->
<!DOCTYPE svg PUBLIC "-//W3C//DTD SVG 1.1//EN" "http://www.w3.org/Graphics/SVG/1.1/DTD/svg11.dtd">
<svg version="1.1" id="Capa_1" xmlns="http://www.w3.org/2000/svg" xmlns:xlink="http://www.w3.org/1999/xlink" x="0px" y="0px"
	 viewBox="0 0 213.453 213.453" style="enable-background:new 0 0 213.453 213.453;" xml:space="preserve">
<path d="M201.588,0H11.864c-2.756,0-4.99,2.234-4.99,4.99v22.611c0,2.756,2.234,4.99,4.99,4.99h14.484l18.446,176.391
	c0.266,2.541,2.408,4.471,4.963,4.471h113.945c2.555,0,4.697-1.93,4.963-4.471l18.443-176.391h14.481c2.756,0,4.99-2.234,4.99-4.99
	V4.99C206.578,2.234,204.344,0,201.588,0z M165.51,143.183h-31.902l3.599-50.31h33.563L165.51,143.183z M123.603,143.183H89.849
	l-3.597-50.31h40.948L123.603,143.183z M122.889,153.163l-3.599,50.31H94.159l-3.596-50.31H122.889z M42.687,92.873h33.56
	l3.597,50.31H47.948L42.687,92.873z M85.539,82.893l-3.596-50.302h49.569l-3.598,50.302H85.539z M71.938,32.591l3.596,50.302h-33.89
	l-5.26-50.302H71.938z M48.991,153.163h31.566l3.597,50.31H54.252L48.991,153.163z M159.207,203.473h-29.911l3.598-50.31h31.573
	L159.207,203.473z M171.814,82.893H137.92l3.598-50.302h35.555L171.814,82.893z M196.598,22.611H16.854V9.98h179.744V22.611z"/>
<g>
</g>
<g>
</g>
<g>
</g>
<g>
</g>
<g>
</g>
<g>
</g>
<g>
</g>
<g>
</g>
<g>
</g>
<g>
</g>
<g>
</g>
<g>
</g>
<g>
</g>
<g>
</g>
<g>
</g>
</svg>
